<svg xmlns="http://www.w3.org/2000/svg" viewBox="0 0 512 512"><defs><linearGradient id="g" x1="0" y1="0" x2="1" y2="1"><stop stop-color="#eef0ff"/><stop offset="1" stop-color="#cfd5ff"/></linearGradient></defs><rect width="512" height="512" rx="116" fill="url(#g)"/><path d="M108 170l62-58 58 38c27-10 49-10 76 0l58-38 62 58-28 76c-2 90-56 150-130 150s-128-60-130-150z" fill="#202431"/><path d="M160 194c18-36 53-58 96-58s78 22 96 58c-10 70-42 116-96 116s-86-46-96-116z" fill="#f7f7f8"/><path d="M196 211c12-19 27-29 45-29s33 10 45 29l-15 58c-9 14-51 14-60 0z" fill="#333745"/><circle cx="205" cy="196" r="11" fill="#111"/><circle cx="307" cy="196" r="11" fill="#111"/><path d="M242 252q14 12 28 0" fill="none" stroke="#111" stroke-width="8" stroke-linecap="round"/></svg>